<svg xmlns="http://www.w3.org/2000/svg" viewBox="0 0 180 180">
  <defs>
    <linearGradient id="bg" x1="18" y1="12" x2="162" y2="168" gradientUnits="userSpaceOnUse">
      <stop stop-color="#8875FF"/>
      <stop offset="0.58" stop-color="#4B3FD4"/>
      <stop offset="1" stop-color="#111C28"/>
    </linearGradient>
    <linearGradient id="drop" x1="64" y1="38" x2="122" y2="140" gradientUnits="userSpaceOnUse">
      <stop stop-color="#F8F4E8"/>
      <stop offset="1" stop-color="#2DD4BF"/>
    </linearGradient>
  </defs>
  <rect width="180" height="180" rx="42" fill="#09071A"/>
  <circle cx="90" cy="90" r="70" fill="url(#bg)" stroke="rgba(255,255,255,0.24)" stroke-width="4"/>
  <path d="M90 34c18.5 23.8 36 47.5 36 72.2C126 126.6 110.4 142 90 142s-36-15.4-36-35.8C54 81.5 71.5 57.8 90 34Z" fill="url(#drop)"/>
  <path d="M110 101.6c-7.5 3.8-18.4 3.7-27.3-.7-10.5-5.1-15.6-14.3-15.8-23.4 12.2 8.9 29 11.8 46.2 6.3 3.1 7.3 1.9 13.8-3.1 17.8Z" fill="#09071A" opacity="0.82"/>
  <circle cx="123" cy="48" r="6.2" fill="#F4C430"/>
  <circle cx="49" cy="128" r="4.4" fill="#2DD4BF"/>
</svg>
