<svg xmlns="http://www.w3.org/2000/svg" viewBox="0 0 64 64">
  <defs>
    <linearGradient id="bg" x1="8" y1="4" x2="56" y2="60" gradientUnits="userSpaceOnUse">
      <stop stop-color="#8875FF"/>
      <stop offset="0.56" stop-color="#4B3FD4"/>
      <stop offset="1" stop-color="#111C28"/>
    </linearGradient>
    <linearGradient id="drop" x1="23" y1="14" x2="43" y2="47" gradientUnits="userSpaceOnUse">
      <stop stop-color="#F8F4E8"/>
      <stop offset="1" stop-color="#2DD4BF"/>
    </linearGradient>
  </defs>
  <rect width="64" height="64" rx="16" fill="#09071A"/>
  <circle cx="32" cy="32" r="25" fill="url(#bg)" stroke="rgba(255,255,255,0.24)" stroke-width="1.5"/>
  <path d="M32 12c6.5 8.3 13 16.8 13 26.1C45 45.4 39.3 51 32 51s-13-5.6-13-12.9C19 28.8 25.5 20.3 32 12Z" fill="url(#drop)"/>
  <path d="M39 36.5c-2.7 1.3-6.5 1.3-9.7-.2-3.8-1.8-5.6-5.1-5.7-8.4 4.4 3.2 10.4 4.2 16.6 2.2 1.1 2.6 0.7 4.9-1.2 6.4Z" fill="#09071A" opacity="0.82"/>
  <circle cx="44" cy="17" r="2.2" fill="#F4C430"/>
  <circle cx="17" cy="45" r="1.6" fill="#2DD4BF"/>
</svg>
